<mxfile host="app.diagrams.net" modified="2021-05-08T11:29:38.771Z" agent="5.0 (Macintosh; Intel Mac OS X 10_15_7) AppleWebKit/537.36 (KHTML, like Gecko) Chrome/90.0.4430.93 Safari/537.36" etag="6GWpZ8-EoMWGSHVDgj-i" version="14.6.6" type="github">
  <diagram id="hRRg6PYz8OMSWvDRIoBU" name="Page-1">
    <mxGraphModel dx="850" dy="502" grid="1" gridSize="10" guides="1" tooltips="1" connect="1" arrows="1" fold="1" page="1" pageScale="1" pageWidth="827" pageHeight="1169" math="0" shadow="0">
      <root>
        <mxCell id="0" />
        <mxCell id="1" parent="0" />
        <mxCell id="2s79AFWmwZUEXArQHGSS-13" style="rounded=0;orthogonalLoop=1;jettySize=auto;html=1;exitX=0.5;exitY=1;exitDx=0;exitDy=0;endArrow=none;endFill=0;entryX=0.5;entryY=0;entryDx=0;entryDy=0;startArrow=classic;startFill=1;" edge="1" parent="1" source="2s79AFWmwZUEXArQHGSS-1" target="2s79AFWmwZUEXArQHGSS-2">
          <mxGeometry relative="1" as="geometry" />
        </mxCell>
        <mxCell id="2s79AFWmwZUEXArQHGSS-14" style="edgeStyle=none;rounded=0;orthogonalLoop=1;jettySize=auto;html=1;exitX=0.5;exitY=1;exitDx=0;exitDy=0;entryX=0.5;entryY=0;entryDx=0;entryDy=0;endArrow=none;endFill=0;startArrow=classic;startFill=1;" edge="1" parent="1" source="2s79AFWmwZUEXArQHGSS-1" target="2s79AFWmwZUEXArQHGSS-3">
          <mxGeometry relative="1" as="geometry" />
        </mxCell>
        <mxCell id="2s79AFWmwZUEXArQHGSS-1" value="&lt;font style=&quot;font-size: 20px&quot; face=&quot;Times New Roman&quot;&gt;Merkle Root&lt;br&gt;Hash(Hash(Hash(Tx 0) | Hash(Tx 1)) | Hash(Hash(Tx 2) | Hash(Tx 3)))&lt;/font&gt;" style="rounded=0;whiteSpace=wrap;html=1;" vertex="1" parent="1">
          <mxGeometry x="70" y="100" width="630" height="60" as="geometry" />
        </mxCell>
        <mxCell id="2s79AFWmwZUEXArQHGSS-15" style="edgeStyle=none;rounded=0;orthogonalLoop=1;jettySize=auto;html=1;exitX=0.5;exitY=1;exitDx=0;exitDy=0;entryX=0.5;entryY=0;entryDx=0;entryDy=0;endArrow=none;endFill=0;startArrow=classic;startFill=1;" edge="1" parent="1" source="2s79AFWmwZUEXArQHGSS-2" target="2s79AFWmwZUEXArQHGSS-4">
          <mxGeometry relative="1" as="geometry" />
        </mxCell>
        <mxCell id="2s79AFWmwZUEXArQHGSS-16" style="edgeStyle=none;rounded=0;orthogonalLoop=1;jettySize=auto;html=1;exitX=0.5;exitY=1;exitDx=0;exitDy=0;entryX=0.5;entryY=0;entryDx=0;entryDy=0;endArrow=none;endFill=0;startArrow=classic;startFill=1;" edge="1" parent="1" source="2s79AFWmwZUEXArQHGSS-2" target="2s79AFWmwZUEXArQHGSS-5">
          <mxGeometry relative="1" as="geometry" />
        </mxCell>
        <mxCell id="2s79AFWmwZUEXArQHGSS-2" value="&lt;span style=&quot;font-family: &amp;#34;times new roman&amp;#34; ; font-size: 20px&quot;&gt;Hash(Hash(Tx 0) | Hash(Tx 1))&lt;/span&gt;" style="rounded=1;whiteSpace=wrap;html=1;" vertex="1" parent="1">
          <mxGeometry x="70" y="190" width="280" height="60" as="geometry" />
        </mxCell>
        <mxCell id="2s79AFWmwZUEXArQHGSS-20" style="edgeStyle=none;rounded=0;orthogonalLoop=1;jettySize=auto;html=1;exitX=0.5;exitY=1;exitDx=0;exitDy=0;entryX=0.5;entryY=0;entryDx=0;entryDy=0;endArrow=none;endFill=0;startArrow=classic;startFill=1;" edge="1" parent="1" source="2s79AFWmwZUEXArQHGSS-3" target="2s79AFWmwZUEXArQHGSS-6">
          <mxGeometry relative="1" as="geometry" />
        </mxCell>
        <mxCell id="2s79AFWmwZUEXArQHGSS-21" style="edgeStyle=none;rounded=0;orthogonalLoop=1;jettySize=auto;html=1;exitX=0.5;exitY=1;exitDx=0;exitDy=0;entryX=0.5;entryY=0;entryDx=0;entryDy=0;endArrow=none;endFill=0;startArrow=classic;startFill=1;" edge="1" parent="1" source="2s79AFWmwZUEXArQHGSS-3" target="2s79AFWmwZUEXArQHGSS-7">
          <mxGeometry relative="1" as="geometry" />
        </mxCell>
        <mxCell id="2s79AFWmwZUEXArQHGSS-3" value="&lt;span style=&quot;font-family: &amp;#34;times new roman&amp;#34; ; font-size: 20px&quot;&gt;Hash(Hash(Tx 2) | Hash(Tx 3))&lt;/span&gt;" style="rounded=1;whiteSpace=wrap;html=1;" vertex="1" parent="1">
          <mxGeometry x="420" y="190" width="280" height="60" as="geometry" />
        </mxCell>
        <mxCell id="2s79AFWmwZUEXArQHGSS-17" style="edgeStyle=none;rounded=0;orthogonalLoop=1;jettySize=auto;html=1;exitX=0.5;exitY=1;exitDx=0;exitDy=0;entryX=0.5;entryY=0;entryDx=0;entryDy=0;endArrow=none;endFill=0;startArrow=classic;startFill=1;" edge="1" parent="1" source="2s79AFWmwZUEXArQHGSS-4" target="2s79AFWmwZUEXArQHGSS-9">
          <mxGeometry relative="1" as="geometry" />
        </mxCell>
        <mxCell id="2s79AFWmwZUEXArQHGSS-4" value="&lt;span style=&quot;font-family: &amp;#34;times new roman&amp;#34; ; font-size: 20px&quot;&gt;Hash(Tx 0)&lt;/span&gt;" style="rounded=1;whiteSpace=wrap;html=1;" vertex="1" parent="1">
          <mxGeometry x="70" y="280" width="130" height="60" as="geometry" />
        </mxCell>
        <mxCell id="2s79AFWmwZUEXArQHGSS-19" style="edgeStyle=none;rounded=0;orthogonalLoop=1;jettySize=auto;html=1;exitX=0.5;exitY=1;exitDx=0;exitDy=0;entryX=0.5;entryY=0;entryDx=0;entryDy=0;endArrow=none;endFill=0;" edge="1" parent="1" source="2s79AFWmwZUEXArQHGSS-5" target="2s79AFWmwZUEXArQHGSS-10">
          <mxGeometry relative="1" as="geometry" />
        </mxCell>
        <mxCell id="2s79AFWmwZUEXArQHGSS-24" value="" style="edgeStyle=none;rounded=0;orthogonalLoop=1;jettySize=auto;html=1;startArrow=classic;startFill=1;endArrow=none;endFill=0;" edge="1" parent="1" source="2s79AFWmwZUEXArQHGSS-5" target="2s79AFWmwZUEXArQHGSS-10">
          <mxGeometry relative="1" as="geometry" />
        </mxCell>
        <mxCell id="2s79AFWmwZUEXArQHGSS-5" value="&lt;span style=&quot;font-family: &amp;#34;times new roman&amp;#34; ; font-size: 20px&quot;&gt;Hash(Tx 1)&lt;/span&gt;" style="rounded=1;whiteSpace=wrap;html=1;" vertex="1" parent="1">
          <mxGeometry x="220" y="280" width="130" height="60" as="geometry" />
        </mxCell>
        <mxCell id="2s79AFWmwZUEXArQHGSS-22" style="edgeStyle=none;rounded=0;orthogonalLoop=1;jettySize=auto;html=1;exitX=0.5;exitY=1;exitDx=0;exitDy=0;entryX=0.5;entryY=0;entryDx=0;entryDy=0;endArrow=none;endFill=0;startArrow=classic;startFill=1;" edge="1" parent="1" source="2s79AFWmwZUEXArQHGSS-6" target="2s79AFWmwZUEXArQHGSS-11">
          <mxGeometry relative="1" as="geometry" />
        </mxCell>
        <mxCell id="2s79AFWmwZUEXArQHGSS-6" value="&lt;span style=&quot;font-family: &amp;#34;times new roman&amp;#34; ; font-size: 20px&quot;&gt;Hash(Tx 2)&lt;/span&gt;" style="rounded=1;whiteSpace=wrap;html=1;" vertex="1" parent="1">
          <mxGeometry x="420" y="280" width="130" height="60" as="geometry" />
        </mxCell>
        <mxCell id="2s79AFWmwZUEXArQHGSS-23" style="edgeStyle=none;rounded=0;orthogonalLoop=1;jettySize=auto;html=1;exitX=0.5;exitY=1;exitDx=0;exitDy=0;endArrow=none;endFill=0;startArrow=classic;startFill=1;" edge="1" parent="1" source="2s79AFWmwZUEXArQHGSS-7" target="2s79AFWmwZUEXArQHGSS-12">
          <mxGeometry relative="1" as="geometry" />
        </mxCell>
        <mxCell id="2s79AFWmwZUEXArQHGSS-7" value="&lt;span style=&quot;font-family: &amp;#34;times new roman&amp;#34; ; font-size: 20px&quot;&gt;Hash(Tx 3)&lt;/span&gt;" style="rounded=1;whiteSpace=wrap;html=1;" vertex="1" parent="1">
          <mxGeometry x="570" y="280" width="130" height="60" as="geometry" />
        </mxCell>
        <mxCell id="2s79AFWmwZUEXArQHGSS-9" value="&lt;span style=&quot;font-family: &amp;#34;times new roman&amp;#34; ; font-size: 20px&quot;&gt;Tx 0&lt;/span&gt;" style="rounded=0;whiteSpace=wrap;html=1;" vertex="1" parent="1">
          <mxGeometry x="100" y="360" width="70" height="60" as="geometry" />
        </mxCell>
        <mxCell id="2s79AFWmwZUEXArQHGSS-10" value="&lt;span style=&quot;font-family: &amp;#34;times new roman&amp;#34; ; font-size: 20px&quot;&gt;Tx 1&lt;/span&gt;" style="rounded=0;whiteSpace=wrap;html=1;" vertex="1" parent="1">
          <mxGeometry x="250" y="360" width="70" height="60" as="geometry" />
        </mxCell>
        <mxCell id="2s79AFWmwZUEXArQHGSS-11" value="&lt;span style=&quot;font-family: &amp;#34;times new roman&amp;#34; ; font-size: 20px&quot;&gt;Tx 2&lt;/span&gt;" style="rounded=0;whiteSpace=wrap;html=1;" vertex="1" parent="1">
          <mxGeometry x="450" y="360" width="70" height="60" as="geometry" />
        </mxCell>
        <mxCell id="2s79AFWmwZUEXArQHGSS-12" value="&lt;span style=&quot;font-family: &amp;#34;times new roman&amp;#34; ; font-size: 20px&quot;&gt;Tx 3&lt;/span&gt;" style="rounded=0;whiteSpace=wrap;html=1;" vertex="1" parent="1">
          <mxGeometry x="600" y="360" width="70" height="60" as="geometry" />
        </mxCell>
      </root>
    </mxGraphModel>
  </diagram>
</mxfile>
